<?xml version="1.0" standalone="no"?>
<!DOCTYPE svg PUBLIC "-//W3C//DTD SVG 20010904//EN"
 "http://www.w3.org/TR/2001/REC-SVG-20010904/DTD/svg10.dtd">
<svg version="1.0" xmlns="http://www.w3.org/2000/svg"
 width="433.000000pt" height="577.000000pt" viewBox="0 0 433.000000 577.000000"
 preserveAspectRatio="xMidYMid meet">

<g transform="translate(0.000000,577.000000) scale(0.100000,-0.100000)"
fill="#FFFFFF" stroke="none">
<path d="M1835 5067 c-21 -12 -29 -14 -115 -23 -62 -7 -89 -21 -68 -36 9 -6 6
-7 -9 -3 -25 7 -40 -10 -16 -19 12 -5 13 -10 5 -18 -9 -9 -16 -7 -31 6 -20 18
-21 18 -51 -8 -32 -26 -60 -34 -60 -16 0 5 -9 14 -20 20 -16 9 -26 6 -53 -13
-17 -14 -46 -32 -64 -41 -17 -9 -35 -25 -38 -36 -6 -20 -8 -21 -33 -4 -25 16
-26 16 -52 -13 -15 -17 -42 -39 -61 -49 -18 -11 -41 -26 -51 -34 -10 -8 -21
-14 -23 -13 -7 4 -105 -89 -105 -99 0 -6 -10 -22 -21 -36 -22 -27 -22 -27 -16
-3 l6 23 -27 -23 c-70 -61 -101 -93 -96 -100 2 -4 -1 -11 -7 -15 -8 -5 -9 -3
-4 7 7 12 6 12 -7 1 -9 -7 -21 -26 -28 -43 -8 -17 -18 -28 -26 -25 -15 6 -48
-43 -103 -154 -23 -47 -55 -107 -71 -135 -16 -27 -28 -56 -25 -62 2 -7 0 -13
-5 -13 -8 0 -21 -34 -39 -105 -9 -35 3 -217 18 -290 25 -112 7 -550 -25 -629
-6 -15 -4 -17 6 -11 10 6 12 3 8 -13 -8 -30 6 -28 32 5 20 26 66 38 77 20 3
-4 2 -20 -2 -34 -4 -19 -9 -23 -18 -14 -20 20 -46 13 -53 -15 -7 -29 15 -174
26 -174 5 0 8 21 8 48 0 83 2 102 11 102 4 0 6 -11 3 -25 -3 -18 0 -25 11 -25
18 0 27 20 28 63 1 31 1 31 11 -8 5 -22 6 -60 3 -85 -5 -37 -4 -43 6 -32 21
20 29 15 53 -38 21 -44 22 -56 13 -93 -18 -73 -12 -115 19 -148 15 -16 38 -29
52 -29 23 0 23 1 -7 26 -17 14 -31 34 -31 45 0 10 18 38 41 61 36 37 42 40 50
25 13 -22 29 -22 30 1 0 9 10 -5 22 -31 12 -27 25 -46 28 -43 3 4 18 -11 32
-33 15 -22 36 -45 48 -51 19 -11 20 -10 13 12 -4 12 -13 27 -19 33 -7 5 -16
27 -20 49 -6 35 -5 38 12 31 10 -5 35 -10 56 -13 l38 -4 -17 38 c-48 109 -53
136 -54 275 0 121 2 139 20 161 31 40 73 169 71 217 -1 16 3 21 13 18 11 -5
14 3 13 31 -1 20 2 58 6 84 7 38 12 46 28 45 10 -1 19 -4 19 -8 0 -4 7 -15 16
-24 14 -13 18 -14 25 -3 13 20 65 -47 79 -102 11 -42 13 -43 23 -22 5 12 16
22 24 22 7 0 13 7 13 16 0 9 7 22 16 28 8 7 18 31 21 55 4 25 9 38 13 30 5 -7
6 -17 4 -24 -3 -6 2 -18 11 -25 25 -20 18 -36 -35 -81 -27 -23 -50 -47 -50
-53 0 -6 -15 -23 -32 -39 l-33 -28 55 6 c30 4 57 11 58 16 2 5 13 9 25 9 20 0
20 1 3 13 -16 12 -6 15 81 26 114 13 279 13 306 -1 19 -10 124 -20 224 -22 35
0 63 -4 63 -8 0 -14 28 -9 44 8 9 8 16 13 16 9 0 -4 7 1 16 9 8 9 21 16 29 16
29 0 7 35 -26 41 -19 4 -28 7 -20 8 11 1 9 6 -7 21 -26 24 -48 26 -56 4 -4
-10 -12 -14 -22 -10 -12 4 -15 2 -10 -9 3 -8 1 -15 -5 -15 -5 0 -15 13 -20 29
-9 26 -16 30 -65 36 -31 4 -78 4 -104 0 -27 -4 -58 -4 -70 0 -20 6 -20 8 -4
19 15 12 15 18 1 87 -8 41 -19 83 -23 94 -7 17 -6 18 8 7 14 -11 14 -7 2 45
-18 77 -3 86 53 31 24 -23 46 -50 49 -60 3 -10 11 -18 18 -18 7 0 27 -20 45
-45 18 -25 37 -42 44 -39 7 2 21 -4 32 -15 10 -12 34 -23 54 -27 20 -3 50 -14
66 -23 54 -31 73 -32 78 -3 3 15 -1 32 -9 39 -16 17 -19 43 -4 43 6 0 10 -6
10 -14 0 -8 7 -17 16 -20 25 -9 30 -7 13 7 -23 18 -53 67 -41 67 12 0 56 -55
65 -83 8 -20 49 -39 58 -26 3 5 21 10 41 11 l35 1 -3 60 c-1 34 1 55 6 48 5
-9 13 -10 24 -4 15 8 15 11 -4 28 -20 18 -28 41 -10 30 15 -9 12 0 -10 38 -13
21 -19 49 -18 77 l1 43 43 -48 c35 -38 100 -85 118 -85 2 0 6 18 9 41 5 36 2
44 -26 71 -26 24 -28 27 -8 18 22 -11 23 -11 19 16 -3 16 -9 37 -13 47 -5 12
-3 17 8 17 14 0 18 16 19 88 1 44 16 41 23 -5 4 -21 12 -54 18 -73 7 -19 12
-39 13 -45 1 -18 27 -69 63 -127 25 -40 41 -56 52 -53 9 3 33 -8 54 -25 21
-16 41 -30 45 -30 5 0 13 -13 19 -30 9 -27 8 -30 -10 -30 -11 0 -17 -5 -14
-10 3 -6 -2 -13 -12 -16 -10 -3 -26 -10 -35 -15 -10 -5 -35 -9 -55 -9 -22 0
-57 -11 -82 -25 -23 -14 -48 -25 -55 -25 -6 0 -22 -19 -36 -41 -18 -30 -26
-36 -28 -24 -2 10 1 21 8 25 8 5 9 10 2 14 -6 3 -14 1 -18 -5 -4 -8 -9 -7 -15
2 -6 10 -9 7 -10 -11 0 -14 -2 -35 -5 -47 -2 -13 1 -23 6 -23 14 0 12 -20 -3
-50 -16 -32 -21 -130 -7 -150 9 -13 13 -12 28 8 22 28 34 19 21 -15 -5 -13 -9
-26 -9 -28 0 -1 17 1 37 5 20 5 39 8 42 8 3 -1 13 1 21 5 8 3 46 7 84 9 57 3
72 8 87 27 11 13 19 36 19 51 0 24 3 27 26 22 18 -3 31 -15 40 -38 18 -43 18
-44 -6 -44 -23 0 -72 -21 -82 -34 -4 -6 -12 -5 -21 2 -10 9 -18 8 -33 -2 -31
-23 -8 -30 60 -18 70 13 120 35 108 47 -4 4 5 5 21 3 18 -4 27 -1 27 8 0 8 7
14 15 14 24 0 79 31 69 39 -5 3 -20 27 -33 53 -33 65 -55 72 -196 64 -71 -5
-115 -4 -115 2 0 5 8 12 18 16 9 3 33 15 52 27 19 12 57 30 85 41 54 20 155
25 155 7 0 -5 5 -7 11 -4 6 4 17 -1 25 -11 8 -11 14 -14 13 -9 -3 23 2 25 19
8 33 -32 125 -378 138 -517 5 -56 10 -74 18 -66 15 15 33 431 20 452 -3 4 2 8
10 8 8 0 27 5 42 10 l27 11 -22 15 c-12 9 -20 21 -18 27 2 7 0 22 -4 34 -5 13
-4 25 1 28 15 9 12 46 -6 80 -9 17 -18 57 -20 90 -7 112 -14 153 -27 187 -24
55 -38 101 -48 145 -4 23 -21 68 -37 100 -35 68 -72 184 -72 223 0 15 -17 53
-40 86 -22 33 -40 64 -40 70 0 36 -149 224 -177 224 -9 0 6 -23 36 -56 28 -30
51 -60 51 -66 0 -17 -40 15 -58 47 -22 38 -70 91 -76 84 -3 -3 2 -14 12 -25
10 -10 45 -55 77 -99 32 -44 63 -82 67 -83 4 -2 5 -8 2 -13 -3 -6 0 -17 7 -25
6 -8 9 -17 6 -20 -3 -3 -12 7 -20 23 -8 15 -33 48 -54 73 -21 25 -55 68 -75
95 -37 51 -98 114 -98 102 0 -4 15 -28 34 -54 48 -68 118 -195 111 -202 -3 -3
-10 1 -15 9 -12 19 -12 13 0 -29 5 -19 7 -38 4 -43 -7 -11 -64 107 -64 132 0
10 -3 20 -7 22 -5 2 -18 24 -30 50 -24 51 -31 61 -93 127 -22 24 -38 47 -34
50 3 3 11 -2 18 -12 15 -19 26 -22 26 -7 0 5 -16 20 -35 32 -39 26 -46 43 -14
33 15 -5 19 -4 15 4 -10 16 -36 13 -42 -4 -5 -12 -9 -13 -21 -3 -11 9 -16 9
-24 -3 -9 -14 -12 -7 -10 21 1 22 -10 34 -47 47 -29 10 -32 10 -21 -3 22 -27
4 -22 -31 7 -23 19 -28 28 -15 24 20 -7 20 -6 1 9 -23 19 -40 21 -30 4 4 -7
-6 -2 -22 9 -27 19 -97 40 -116 35 -5 -1 -8 5 -8 14 0 11 -6 15 -20 11 -11 -3
-31 4 -46 16 -21 16 -42 21 -95 21 -38 1 -69 4 -69 8 0 5 -129 49 -142 48 -1
0 -12 -6 -23 -13z m-35 -37 c0 -5 -6 -10 -14 -10 -8 0 -18 5 -21 10 -3 6 3 10
14 10 12 0 21 -4 21 -10z m42 -36 c-2 -13 -9 -24 -14 -24 -6 0 -8 10 -4 23 3
12 6 29 6 37 0 12 2 12 9 2 4 -7 6 -24 3 -38z m-69 1 c30 -29 35 -53 11 -62
-8 -3 -13 -12 -10 -19 3 -8 1 -14 -4 -14 -13 0 -13 26 0 50 8 15 5 22 -12 34
-12 9 -35 16 -50 16 -15 0 -30 5 -33 10 -4 6 9 10 32 10 27 0 46 -7 66 -25z
m220 1 c30 -7 38 -28 10 -25 -33 3 -41 -1 -47 -25 -6 -23 -33 -42 -44 -31 -3
2 -5 19 -4 36 1 36 29 73 46 60 6 -4 23 -11 39 -15z m103 11 c3 -9 16 -12 34
-9 22 3 30 0 30 -11 0 -9 12 -25 27 -36 14 -12 23 -24 19 -28 -3 -4 -12 -1
-18 5 -15 15 -58 16 -58 1 0 -6 -10 -23 -21 -37 l-21 -27 7 25 c4 14 11 26 16
28 15 6 -21 62 -39 62 -15 1 -14 2 3 12 19 11 19 11 0 19 -18 7 -18 8 -2 8 10
1 20 -5 23 -12z m-509 -69 c-3 -7 -5 -2 -5 12 0 14 2 19 5 13 2 -7 2 -19 0
-25z m269 -34 c-6 -16 -8 -16 -16 -4 -6 8 -10 24 -10 35 0 18 1 18 16 3 10
-10 14 -23 10 -34z m228 21 c-4 -8 -10 -12 -15 -9 -14 8 -10 24 6 24 9 0 12
-6 9 -15z m-514 -9 c0 -8 -4 -18 -10 -21 -5 -3 -10 1 -10 10 0 11 -5 15 -15
11 -8 -3 -15 -1 -15 4 0 6 11 10 25 10 15 0 25 -6 25 -14z m148 -3 c0 -10 0
-22 2 -28 4 -17 0 -119 -5 -114 -7 7 -15 141 -9 151 8 13 13 9 12 -9z m567
-16 c11 -7 21 -22 22 -34 3 -21 2 -22 -29 -5 -34 18 -58 37 -58 46 0 10 44 6
65 -7z m-915 -1 c0 -3 -4 -8 -10 -11 -5 -3 -10 -1 -10 4 0 6 5 11 10 11 6 0
10 -2 10 -4z m26 -33 c-10 -10 -19 5 -10 18 6 11 8 11 12 0 2 -7 1 -15 -2 -18z
m108 -29 c8 -65 8 -84 -4 -84 -5 0 -10 17 -10 38 0 21 -7 47 -15 58 -15 22
-11 34 10 34 7 0 15 -21 19 -46z m54 4 c11 -53 3 -71 -13 -31 -25 59 -27 73
-11 73 9 0 18 -15 24 -42z m-292 -63 c-8 -15 -20 -31 -26 -35 -6 -4 -13 -28
-15 -54 -2 -25 -11 -53 -19 -62 -9 -8 -16 -22 -16 -31 0 -12 -3 -13 -14 -4
-13 11 -11 19 10 58 13 25 24 52 24 60 0 22 58 108 67 100 2 -2 -3 -17 -11
-32z m159 -2 c-4 -10 -11 -34 -15 -53 -17 -77 -56 -158 -48 -100 2 17 -1 24
-10 22 -8 -1 -11 2 -7 8 3 6 10 8 14 6 4 -3 6 20 4 50 -2 38 0 53 8 49 6 -4
17 2 25 14 18 26 39 28 29 4z m1143 -96 c56 -112 82 -171 82 -187 0 -23 -15 1
-35 55 -21 56 -69 148 -97 184 -21 28 -23 42 -4 35 7 -3 32 -42 54 -87z
m-1428 59 c0 -2 -8 -10 -17 -17 -16 -13 -17 -12 -4 4 13 16 21 21 21 13z m155
-29 c0 -13 -5 -24 -12 -24 -7 0 -11 3 -9 6 2 3 6 14 9 24 9 23 12 22 12 -6z
m1348 -23 c-3 -8 4 -26 14 -41 11 -15 27 -44 37 -63 9 -19 22 -43 29 -52 9
-13 9 -20 0 -29 -12 -12 -33 -4 -33 12 0 6 5 7 10 4 18 -11 11 3 -15 31 -14
15 -25 32 -25 38 0 6 -11 32 -25 58 -31 59 -33 83 -6 66 10 -6 17 -17 14 -24z
m-1509 1 c-4 -8 -11 -15 -16 -15 -6 0 -5 6 2 15 7 8 14 15 16 15 2 0 1 -7 -2
-15z m-69 -82 c-16 -38 -22 -82 -13 -85 11 -4 -11 -58 -23 -58 -4 0 -4 13 1
28 4 16 4 36 -1 45 -6 11 -2 26 13 51 25 38 34 46 23 19z m-51 -33 c-16 -32
-27 -40 -19 -15 3 8 7 22 10 30 2 8 9 15 14 15 5 0 3 -13 -5 -30z m82 2 c-18
-16 -18 -16 -6 6 6 13 14 21 18 18 3 -4 -2 -14 -12 -24z m701 -19 c-3 -10 -5
-4 -5 12 0 17 2 24 5 18 2 -7 2 -21 0 -30z m-911 -28 c-6 -32 -49 -102 -53
-88 -4 11 45 113 53 113 3 0 2 -11 0 -25z m468 -8 c-9 -24 -23 -11 -17 14 3
12 9 17 15 11 5 -5 6 -16 2 -25z m753 -4 c-3 -10 -5 -4 -5 12 0 17 2 24 5 18
2 -7 2 -21 0 -30z m-986 -24 c-25 -41 -27 -32 -5 19 9 20 18 32 21 26 2 -7 -5
-27 -16 -45z m1321 9 c-9 -9 -12 -7 -12 12 0 19 3 21 12 12 9 -9 9 -15 0 -24z
m68 0 c0 -19 -16 -5 -17 14 -2 18 0 20 7 8 5 -8 10 -18 10 -22z m-1502 2 c-7
-10 -14 -17 -17 -15 -4 4 18 35 25 35 2 0 -1 -9 -8 -20z m1539 -62 c-3 -7 -5
-2 -5 12 0 14 2 19 5 13 2 -7 2 -19 0 -25z m-464 -8 c-3 -11 -7 -20 -9 -20 -2
0 -4 9 -4 20 0 11 4 20 9 20 5 0 7 -9 4 -20z m774 -22 c-3 -7 -5 -2 -5 12 0
14 2 19 5 13 2 -7 2 -19 0 -25z m-2087 18 c0 -13 -32 -77 -36 -73 -3 3 0 16 7
28 9 18 9 24 -1 27 -9 3 -9 6 1 13 15 9 29 12 29 5z m241 -95 c-3 -30 -11 -56
-17 -58 -7 -2 -7 15 2 54 7 32 13 60 13 62 1 2 3 2 4 0 2 -2 1 -28 -2 -58z
m279 46 c0 -7 -7 -22 -15 -33 -8 -10 -15 -29 -15 -41 0 -12 -4 -25 -10 -28
-14 -9 -13 41 2 82 12 32 38 46 38 20z m1599 -47 c0 -8 -5 -4 -13 10 -7 14
-10 29 -8 34 6 11 20 -20 21 -44z m-1672 18 c-3 -8 -6 -5 -6 6 -1 11 2 17 5
13 3 -3 4 -12 1 -19z m-402 -15 c-3 -15 -15 -45 -24 -68 -10 -22 -21 -47 -24
-55 -3 -9 -6 -6 -6 9 -1 31 39 141 51 141 6 0 7 -12 3 -27z m96 -52 c-6 -38
-11 -95 -11 -126 0 -39 -3 -54 -11 -49 -8 4 -9 29 -4 76 4 49 3 68 -4 63 -6
-3 -11 -1 -11 4 0 6 4 11 9 11 5 0 14 23 21 51 17 71 24 54 11 -30z m826 47
c-3 -7 -5 -2 -5 12 0 14 2 19 5 13 2 -7 2 -19 0 -25z m-1016 -21 c-8 -8 -11
-7 -11 4 0 20 13 34 18 19 3 -7 -1 -17 -7 -23z m966 -4 c-3 -10 -5 -4 -5 12 0
17 2 24 5 18 2 -7 2 -21 0 -30z m193 6 c0 -10 -4 -19 -10 -19 -5 0 -10 12 -10
26 0 14 4 23 10 19 6 -3 10 -15 10 -26z m-673 -11 c-3 -8 -6 -5 -6 6 -1 11 2
17 5 13 3 -3 4 -12 1 -19z m1847 -102 c14 -42 26 -82 25 -89 0 -12 -60 127
-74 173 -7 22 -6 23 8 8 9 -8 27 -50 41 -92z m-2061 23 c3 -10 1 -22 -4 -25
-5 -3 -9 -15 -9 -27 0 -12 -5 -29 -10 -37 -7 -11 -10 5 -10 52 0 54 3 66 14
62 8 -3 16 -14 19 -25z m-325 -54 c-3 -14 -1 -25 4 -25 5 0 6 -4 3 -10 -12
-19 -22 -10 -20 18 3 37 4 42 11 42 4 0 4 -11 2 -25z m99 -7 c-3 -8 -6 -5 -6
6 -1 11 2 17 5 13 3 -3 4 -12 1 -19z m330 -15 c-3 -10 -5 -4 -5 12 0 17 2 24
5 18 2 -7 2 -21 0 -30z m-426 -90 c-9 -15 -10 -13 -11 13 0 17 3 34 8 38 11
12 14 -32 3 -51z m-110 -35 c-6 -17 -12 -43 -12 -57 -1 -17 -3 -20 -6 -9 -2
10 1 44 8 75 7 32 14 50 17 40 2 -10 -1 -32 -7 -49z m338 -10 l-1 -53 -9 40
c-5 21 -7 45 -5 52 11 26 16 12 15 -39z m-302 -145 c-3 -10 -5 -2 -5 17 0 19
2 27 5 18 2 -10 2 -26 0 -35z m903 -99 c0 -12 11 -33 25 -48 14 -15 25 -31 25
-35 0 -14 62 -71 71 -65 5 2 16 -8 26 -23 9 -15 27 -38 38 -50 27 -28 50 -71
42 -79 -3 -4 -26 -1 -49 5 -24 7 -57 13 -74 15 -18 1 -39 8 -48 15 -9 7 -16
10 -16 5 -1 -21 -22 31 -30 74 -28 145 -40 220 -39 242 1 24 1 24 14 -5 8 -16
14 -39 15 -51z m710 -99 c7 -9 8 -15 2 -15 -5 0 -12 7 -16 15 -3 8 -4 15 -2
15 2 0 9 -7 16 -15z m780 0 c5 3 16 -5 24 -17 20 -28 20 -35 1 -35 -8 0 -15 6
-15 14 0 7 -12 18 -27 24 -22 8 -24 12 -13 19 9 6 16 6 18 0 2 -6 8 -8 12 -5z
m-1497 -149 c9 -13 15 -33 14 -44 -1 -16 -5 -19 -19 -11 -10 5 -19 15 -19 22
-1 7 -3 22 -4 35 -3 29 9 28 28 -2z m647 -135 c-5 -11 -15 -23 -22 -27 -7 -5
-8 -2 -3 7 21 37 44 55 25 20z m708 -28 c-21 -2 -57 -2 -80 0 -24 2 -7 4 37 4
44 0 63 -2 43 -4z m88 -18 c10 -8 14 -15 8 -15 -5 0 -19 7 -30 15 -10 8 -14
15 -8 15 5 0 19 -7 30 -15z m-224 -47 c-9 -9 -15 -9 -24 0 -9 9 -7 12 12 12
19 0 21 -3 12 -12z m-88 -57 c3 -5 -1 -15 -10 -22 -13 -10 -17 -10 -25 2 -5 8
-9 17 -9 22 0 10 38 9 44 -2z m-1804 -402 c0 -17 -4 -28 -10 -24 -5 3 -10 17
-10 31 0 13 5 24 10 24 6 0 10 -14 10 -31z m150 -124 c0 -8 -2 -15 -4 -15 -2
0 -6 7 -10 15 -3 8 -1 15 4 15 6 0 10 -7 10 -15z m20 -60 c0 -5 -5 -3 -10 5
-5 8 -10 20 -10 25 0 6 5 3 10 -5 5 -8 10 -19 10 -25z"/>
<path d="M2679 4776 c9 -11 9 -15 -1 -19 -7 -2 0 -4 16 -4 16 0 33 -8 38 -17
5 -9 16 -16 25 -16 9 0 -4 15 -30 35 -47 36 -68 45 -48 21z"/>
<path d="M1750 3243 c-51 -8 -146 -36 -180 -53 -39 -21 -114 -90 -105 -98 3
-3 20 5 38 18 82 61 132 91 180 105 72 21 180 19 247 -6 78 -29 106 -31 106
-8 0 11 -6 19 -12 19 -6 0 -25 7 -40 15 -27 14 -165 19 -234 8z"/>
<path d="M1765 3210 c-44 -4 -89 -11 -100 -16 -23 -9 -138 -84 -175 -113 l-25
-21 35 -1 c64 -3 68 -4 76 -11 13 -14 61 -9 74 7 10 12 10 15 -2 15 -8 0 -23
9 -32 19 -17 19 -17 20 3 30 17 10 23 7 43 -20 l23 -31 78 6 c50 4 77 3 77 -4
0 -5 4 -10 10 -10 5 0 7 7 4 15 -4 8 -13 15 -21 15 -8 0 -13 3 -11 8 3 4 10
22 17 40 13 32 16 33 50 27 20 -4 42 -12 50 -18 10 -9 5 -15 -29 -29 -24 -10
-39 -22 -35 -28 5 -8 11 -6 18 3 10 12 77 25 155 30 19 1 15 4 -30 31 -35 20
-169 70 -172 65 -1 -1 -37 -5 -81 -9z"/>
<path d="M2055 3210 c4 -6 11 -8 16 -5 14 9 11 15 -7 15 -8 0 -12 -5 -9 -10z"/>
<path d="M2525 3140 c3 -5 11 -10 16 -10 6 0 7 5 4 10 -3 6 -11 10 -16 10 -6
0 -7 -4 -4 -10z"/>
<path d="M1815 3061 c-3 -6 -19 -11 -35 -11 -16 0 -32 -5 -36 -12 -5 -8 3 -9
31 -5 39 6 64 22 53 32 -3 4 -9 2 -13 -4z"/>
<path d="M2662 2668 c-7 -7 -12 -18 -12 -26 0 -7 -5 -10 -12 -6 -7 4 -8 3 -4
-4 7 -12 -10 -52 -22 -52 -5 0 -18 9 -30 21 -25 22 -42 18 -42 -12 0 -10 -6
-19 -14 -19 -8 0 -18 -9 -21 -20 -7 -22 -25 -27 -25 -7 0 8 -18 30 -40 51
l-40 37 -43 -20 c-23 -11 -55 -23 -70 -26 -15 -4 -33 -17 -39 -29 -6 -11 -17
-25 -25 -29 -11 -7 -9 -12 9 -26 42 -33 107 -61 130 -57 13 3 27 5 31 5 5 1 5
6 2 11 -3 6 -21 10 -39 10 -23 0 -36 6 -40 18 -3 9 -9 23 -12 30 -7 15 32 17
41 2 8 -13 55 -13 55 0 0 22 35 28 59 9 l23 -19 -23 -8 -23 -9 22 -12 c12 -6
22 -18 22 -26 0 -8 7 -15 15 -15 8 0 15 -7 15 -15 0 -10 10 -15 31 -15 24 0
30 3 25 16 -5 13 0 15 34 9 33 -6 40 -4 40 9 0 9 4 16 8 16 5 0 17 18 27 40
10 22 24 45 32 52 8 6 21 25 29 41 15 28 15 30 -18 58 -38 33 -40 33 -56 17z"/>
<path d="M2595 2620 c-3 -5 -1 -10 4 -10 6 0 11 5 11 10 0 6 -2 10 -4 10 -3 0
-8 -4 -11 -10z"/>
<path d="M887 2524 c5 -13 52 -29 60 -20 10 10 -8 24 -36 28 -20 3 -27 0 -24
-8z"/>
<path d="M2495 2363 c3 -16 12 -34 19 -41 11 -11 13 -8 12 16 -1 17 -5 27 -11
24 -5 -3 -4 2 4 11 12 15 11 17 -9 17 -19 0 -21 -4 -15 -27z"/>
<path d="M2700 2359 c0 -5 5 -7 10 -4 6 3 10 8 10 11 0 2 -4 4 -10 4 -5 0 -10
-5 -10 -11z"/>
<path d="M3087 2346 c-4 -10 -5 -21 -2 -24 9 -9 17 6 13 25 -3 17 -4 17 -11
-1z"/>
<path d="M979 2283 c-9 -18 -13 -36 -8 -39 5 -3 9 1 10 8 0 7 7 0 14 -17 l14
-30 0 45 c1 62 -10 75 -30 33z"/>
<path d="M2865 2310 c-5 -8 -21 -10 -41 -7 -25 4 -34 2 -34 -8 0 -7 -6 -16
-12 -19 -7 -3 -2 -3 11 0 l24 6 -19 -25 c-20 -27 -49 -37 -74 -26 -29 13 -87
29 -102 29 -9 0 -28 -7 -44 -15 -18 -9 -42 -12 -70 -8 -33 4 -55 0 -91 -17
-91 -43 -135 -60 -154 -60 -11 0 -27 -4 -37 -9 -9 -5 -37 -15 -62 -22 -25 -7
-70 -31 -100 -54 -30 -22 -58 -43 -63 -46 -5 -4 -7 -12 -3 -18 5 -7 19 -6 46
5 23 9 56 14 78 12 23 -3 41 0 47 8 6 7 17 14 25 16 8 2 19 9 25 16 20 25 117
41 242 40 86 -1 127 2 137 11 9 7 23 11 32 7 8 -3 28 1 44 9 33 17 70 20 70 5
0 -16 -40 -57 -84 -87 -23 -16 -47 -34 -55 -41 -7 -7 -19 -11 -27 -8 -7 3 -14
0 -16 -6 -2 -6 -13 -12 -24 -12 -11 -1 -25 -5 -32 -10 -8 -5 -12 0 -12 16 -1
23 -1 23 -16 3 -9 -12 -18 -16 -22 -10 -14 20 -78 46 -97 39 -12 -5 -16 -4
-12 3 4 6 -5 13 -21 16 -15 3 -29 1 -30 -4 -2 -5 -7 -7 -12 -4 -11 7 -19 -30
-10 -44 4 -7 16 -13 27 -14 18 -1 19 -4 10 -24 -5 -12 -14 -20 -20 -16 -5 3
-6 -3 -2 -16 6 -20 -13 -51 -32 -51 -4 0 -8 -11 -8 -25 0 -14 3 -25 8 -25 4 0
7 4 7 8 0 4 12 8 28 9 23 1 24 0 7 -7 -19 -7 -18 -9 7 -19 32 -12 100 -12 92
1 -9 14 50 8 71 -8 19 -14 19 -16 3 -28 -20 -15 -24 -46 -6 -46 6 0 19 7 28
15 17 16 37 19 98 16 23 -1 32 -6 33 -18 0 -14 2 -15 6 -3 9 22 55 55 79 56
11 1 27 5 34 9 10 6 12 4 7 -8 -8 -22 2 -22 20 1 10 12 16 14 19 5 3 -7 10
-13 15 -13 6 0 8 4 5 8 -3 5 5 8 17 7 14 -1 22 -8 22 -21 0 -10 6 -25 12 -32
8 -8 11 -30 9 -52 -2 -22 -1 -39 3 -38 26 3 30 -4 12 -24 -11 -11 -18 -25 -15
-30 3 -4 -5 -8 -17 -8 -16 0 -20 -5 -16 -19 4 -15 -2 -18 -37 -19 -70 0 -76
-2 -76 -17 0 -18 16 -20 24 -2 3 6 4 3 3 -8 -3 -25 -21 -45 -40 -45 -8 0 -17
-7 -21 -15 -5 -13 -36 -22 -36 -10 0 15 44 53 56 48 22 -8 16 15 -6 27 -11 6
-20 8 -20 4 0 -3 -6 -2 -12 3 -9 7 -19 4 -30 -9 -10 -10 -15 -18 -12 -18 4 0
1 -7 -6 -15 -10 -12 -9 -15 6 -16 15 0 15 -2 4 -6 -8 -4 -20 -13 -27 -22 -11
-14 -12 -14 -13 3 0 11 -3 16 -7 13 -5 -6 -8 -19 -12 -62 -1 -5 -5 -4 -10 4
-7 11 -13 9 -31 -9 -12 -12 -39 -27 -59 -33 -39 -11 -135 -12 -151 -2 -6 3
-10 3 -10 -2 0 -4 -42 -6 -92 -3 -51 3 -94 2 -96 -2 -2 -5 -16 -8 -31 -8 -16
0 -41 -5 -58 -10 -19 -7 -44 -8 -71 -1 -24 5 -39 5 -36 0 8 -14 -40 -11 -54 3
-9 9 -15 9 -23 1 -12 -12 -68 3 -81 22 -5 6 -8 6 -8 -1 0 -7 -8 -14 -17 -16
-24 -6 -39 -5 -36 4 2 4 -4 5 -13 1 -10 -4 -12 -8 -5 -12 6 -4 12 -16 13 -27
2 -10 11 -30 21 -44 19 -28 23 -20 6 13 -10 20 -9 20 12 -3 13 -13 23 -28 22
-32 -2 -4 15 -17 37 -29 22 -13 40 -26 40 -30 0 -7 39 -22 53 -20 4 1 10 -6
13 -14 4 -8 10 -15 16 -15 5 0 6 5 3 10 -3 6 -3 10 0 10 11 0 35 -28 35 -40 0
-8 6 -8 21 0 19 10 20 10 10 -9 -7 -11 -7 -22 -2 -25 13 -8 41 4 41 18 0 6 5
3 11 -7 6 -9 15 -15 20 -11 6 3 13 -3 15 -13 4 -14 15 -20 37 -21 18 -1 51 -8
74 -16 23 -8 43 -13 46 -10 2 2 23 -3 47 -11 23 -8 55 -15 69 -15 15 0 36 -7
47 -15 16 -13 17 -16 4 -25 -13 -8 -12 -10 3 -10 38 0 133 33 175 61 24 16 49
29 57 29 7 0 15 4 17 8 2 4 29 28 61 52 31 25 57 49 57 55 0 5 -4 4 -9 -4 -5
-8 -14 -10 -21 -6 -8 5 -11 4 -7 -2 4 -6 -3 -13 -14 -16 -12 -3 -18 -10 -14
-16 3 -6 -1 -11 -9 -11 -23 0 2 40 76 120 25 27 42 62 45 89 2 27 30 61 50 61
7 0 13 10 14 23 0 12 7 -3 15 -33 9 -30 14 -76 11 -102 l-4 -47 63 -47 c72
-52 94 -83 129 -180 35 -94 42 -191 20 -274 -15 -59 -23 -71 -89 -135 -162
-158 -377 -219 -668 -189 -69 7 -155 20 -191 28 -124 29 -467 160 -620 237
-150 76 -343 214 -426 304 -103 114 -184 290 -151 330 18 21 9 26 -20 12 -14
-7 -41 -36 -60 -64 -51 -75 -84 -88 -212 -80 -93 6 -111 4 -188 -19 -47 -14
-116 -43 -155 -65 -154 -84 -242 -130 -287 -150 l-48 -21 0 -454 0 -454 2165
0 2165 0 0 363 0 362 -62 24 c-35 13 -197 80 -361 148 -318 132 -470 203 -554
260 -33 23 -83 43 -142 59 -64 16 -103 33 -136 59 -26 20 -74 43 -107 52 l-61
17 6 86 c4 55 3 80 -3 70 -8 -13 -10 -13 -10 1 0 9 7 22 15 29 8 7 15 19 15
27 0 8 13 35 30 59 92 137 186 348 176 397 -3 15 -2 26 2 23 4 -2 7 7 7 20 0
13 -4 24 -10 25 -5 0 -19 2 -30 4 -10 2 -26 -2 -34 -8 -12 -10 -13 -9 -4 8 12
24 6 48 -10 38 -7 -4 -7 0 1 9 7 9 12 22 11 30 -1 7 1 26 6 42 5 20 4 31 -6
37 -19 12 -23 4 -29 -58 -4 -46 -9 -57 -25 -59 -10 -2 -26 3 -34 9 -12 10 -14
9 -8 -5 6 -18 -8 -35 -17 -20 -3 5 -7 23 -8 41 -1 17 -8 31 -15 31 -18 0 -36
38 -30 66 2 13 0 25 -5 26 -5 2 -10 11 -12 20 -3 24 -13 32 -21 18z m10 -39
c3 -5 2 -12 -3 -15 -5 -3 -9 1 -9 9 0 17 3 19 12 6z m-1 -187 c22 -23 26 -34
24 -79 -2 -38 -6 -51 -15 -48 -7 3 -13 8 -13 12 0 4 -12 8 -26 9 -14 1 -29 4
-34 7 -11 7 -10 75 1 75 5 0 9 11 9 25 0 33 20 32 54 -1z m36 -368 c0 -3 -4
-8 -10 -11 -5 -3 -10 -1 -10 4 0 6 5 11 10 11 6 0 10 -2 10 -4z m-480 -716 c0
-5 -4 -10 -10 -10 -5 0 -10 5 -10 10 0 6 5 10 10 10 6 0 10 -4 10 -10z"/>
<path d="M2915 2240 c3 -5 11 -10 16 -10 6 0 7 5 4 10 -3 6 -11 10 -16 10 -6
0 -7 -4 -4 -10z"/>
<path d="M2054 2142 c-9 -23 -8 -28 5 -28 11 0 16 8 15 23 -1 34 -9 36 -20 5z"/>
<path d="M2223 2038 c-14 -17 -12 -48 1 -48 6 0 11 14 12 30 1 34 0 35 -13 18z"/>
<path d="M1590 1799 c0 -24 16 -40 33 -33 9 3 17 11 17 17 0 6 -3 7 -7 4 -3
-4 -15 0 -25 10 -14 13 -18 13 -18 2z"/>
<path d="M2290 1790 c0 -5 7 -10 16 -10 8 0 12 5 9 10 -3 6 -10 10 -16 10 -5
0 -9 -4 -9 -10z"/>
<path d="M2615 1710 c-3 -6 -14 -10 -25 -10 -13 0 -17 -5 -13 -21 4 -13 8 -16
13 -9 5 8 10 7 19 -4 16 -19 37 -11 37 13 0 22 -22 45 -31 31z"/>
<path d="M2145 1680 c-3 -5 -1 -10 4 -10 6 0 11 5 11 10 0 6 -2 10 -4 10 -3 0
-8 -4 -11 -10z"/>
<path d="M1727 1376 c-4 -10 -1 -13 9 -9 15 6 19 23 5 23 -5 0 -11 -7 -14 -14z"/>
<path d="M2770 1200 c-13 -8 -12 -10 3 -10 9 0 17 5 17 10 0 12 -1 12 -20 0z"/>
<path d="M2893 1173 c0 -10 12 -34 27 -53 40 -51 57 -89 81 -175 18 -66 20
-97 17 -204 -3 -69 -8 -135 -12 -146 l-8 -20 17 20 c32 37 44 81 50 178 5 85
3 103 -19 167 -31 88 -79 175 -121 218 -25 25 -32 28 -32 15z"/>
<path d="M2882 1105 c0 -16 2 -22 5 -12 2 9 2 23 0 30 -3 6 -5 -1 -5 -18z"/>
<path d="M2075 960 c3 -5 13 -10 21 -10 8 0 14 5 14 10 0 6 -9 10 -21 10 -11
0 -17 -4 -14 -10z"/>
</g>
</svg>
